<svg id="Layer_1" xmlns="http://www.w3.org/2000/svg" xmlns:xlink="http://www.w3.org/1999/xlink" viewBox="0 78 404.7 722.11"><style>.st0{fill:#fff}</style><path d="M0-.71h404.7v810.83H0z"/><path class="st0" d="M302.59 628.15l-2.26 8.28c9.78 0 22.57 6.02 22.57 11.28v39.37c-.04-.84-1.36 21.57-32.35 21.57-55.68 0-63.2-40.63-63.2-81.25 0-27.84 9.78-53.42 23.32-69.22 13.54-15.8 39.87-15.05 61.69-12.79 21.82 2.26 27.84 36.11 27.84 36.11l6.77-2.26 1.5-54.17s-3.01-3.01-5.27-2.26-10.53 4.51-15.05 4.51c-4.51 0-18.81-3.76-33.86-3.76-27.08 0-53.42 6.77-72.98 33.86a130.85 130.85 0 0 0-13.98 24.55v-63.05l.06-.57c0-33.1 16.63-26.42 18.43-29.72 2.26-4.14 2.63-4.89-.38-5.64 0 0-35.42-.44-64.33 0 0 0-8.4 5.95-3.01 6.39 21.48 1.79 31.22 9.4 31.22 30.09l-.06.19v103.07c0 27.08-21.07 43.64-51.16 43.64-30.09 0-51.16-19.56-51.16-52.66v-94.04c0-33.1 16.63-27.17 18.43-30.47 2.26-4.14 2.63-4.89-.38-5.64 0 0-37.99 2.26-65.83 0 0 0-8.4 5.94-3.01 6.39 21.48 1.79 22.19 12.04 22.19 32.73v106.83s-2.26 57.18 72.98 57.18c31.6 0 50.41-12.79 60.19-25.58 0 0 2.58-2.58 5.65-7.14 1.13 10.01 3.21 19.78 6.07 29.09 12.04 39.12 57.18 49.65 72.22 49.65 18.81 0 18.06 0 35.36-11.29 8.91-5.81 42.13-18.06 42.13-18.06v-54.92c0-9.78 16.55-13.54 16.55-13.54l.75-6.77h-67.65z"/><defs><path id="SVGID_1_" d="M0-.71h404.7v406.13H0z"/></defs><clipPath id="SVGID_2_"><use xlink:href="#SVGID_1_" overflow="visible"/></clipPath><g><path class="st0" d="M297.3 156.72s-3.41-.3-3.41 6.33l.02 24.9c0 4.42 1.37 5.67 4.22 6.02.96.12-.19 1.39-.4 1.61-.2.2-6.02-.6-12.45 0-.8.07-.21-.6-.21-1.41s3.62-.2 3.62-4.22l-.02-26c0-7.43-5.62-6.83-5.62-6.83s-.8-1.81 2.41-1.81c1.4 0 8.33.2 11.85 0 .9-.05.9.2.6.6-.31.41-.01.71-.61.81M162.67 200.79l-13.2-35.74c-3.01-8.03-6.22-8.23-6.22-8.23s-.6-1.4 2.61-1.4h12.85l-.65 1.81c-2.01 0-4.22 1.61-2.41 7.03l8.23 23.29s5.62-13.65 7.63-19.88c2.01-6.22 1.2-8.63-1.61-10.04-2.81-1.4-.6-2.21-.6-2.21h11.64v1.4c-3.01.4-4.97 7.85-6.22 11.25-4.12 11.14-10.44 30.92-10.84 31.92-.38.93-.41 1.2-1.21.8M206.87 217.41c-.52 1.81-2.33 1.86-5.04 1.86-3.01 0-7.03.6-7.03.6v-12.05h11.04s4.62.21 5.62 4.22c1 4.02 3.21 1.21 2.21-1.4-1.01-2.61-1.01-7.03-1.01-7.03l-2.91.3h-24.09c-3.21 0-2.01 2.01-2.01 2.01s5.22-.2 5.22 6.63l.02 25.4c0 4.02-3.23 3.91-3.61 4.62-1.01 1.87-.34 1.61 1 1.61 0 0 15.14-.4 23.97 0 1.2.05 2.81 1 3.62-.4.94-1.65 1.41-8.84 1.41-8.84s-.32-3.24-2.21 0c-1.82 3.13-1.81 5.83-8.83 5.83s-9.24-.4-9.44-2.82c-.2-2.4 0-14.45 0-14.45s.81-1.2 3.41-1.2h4.02s3.63.27 4.42 4.22c.2 1 1.61-.41 1.61-.41v-8.03c0-.02-.26-1.08-1.39-.67M238.68 155.06c4.62 0 8.32 4.37 8.32 8.99 0 6.23-6.82 10.04-10.84 10.04 0 0 4.51 2.8 10.84 12.45 6.33 9.64 12.25 11.85 18.37 12.15 2.21.11 7.13-.2 12.65-3.41 3.51-2.04 1.4.81 1.01 1.2-.4.4-6.73 5.72-16.16 5.72-11.44 0-18.88-9.44-22.49-15.06-3.62-5.62-8.43-10.69-8.43-10.69-1.96-2.54-4.62-1.61-4.62-1.61v15.46c0-.4-.29 2.3 2.8 3.06 3.15.77 1 2.01 1 2.01l-12.92-.05c-.8 0 0-.4 0-1.2 0-.81 3.82-.2 3.82-4.22l-.02-26.4c.61-6.63-5.22-7.03-5.22-7.03 0-1.61.89-1.8 2.9-1.65 5.22.38 16.38.45 18.99.24m-3.52 3.12l-7.83.4v12.45s3.43.92 6.42.6c1.91-.2 4.52-.65 5.65-2.06 0 0 1.37-2.71 1.37-4.92.01-2.21-1.99-5.67-5.61-6.47z"/><path class="st0" d="M280.73 154.61s-1 .61-2.81.4c-1.81-.2-5.83-.88-8.43-.8-7.03.2-13.45 5.62-13.45 11.25 0 5.62 4.41 9.23 10.84 10.64 6.42 1.4 10.04 3.01 10.04 8.63 0 4.82-5.22 6.83-9.04 6.83-3.81 0-8.68-2.98-10.84-6.22-1.61-2.41-1.2-4.62-1.2-4.62l-2.11.8s.7 5.02.1 7.43c-.45 1.8 4.82 6.63 12.85 6.63 9.84 0 16.26-4.62 16.26-14.26 0-8.03-9.84-9.84-12.65-10.44-2.81-.6-8.44-2.61-8.44-7.23 0-4.62 4.82-5.62 8.23-5.62 3.42 0 6.02 1.41 7.43 3.41 1.41 2.01 1.41 3.81 1.41 3.81l1.81-.6s-.6-4.22-.6-5.62c0-1.61.6-4.21.6-4.42M303.02 155.82h23.29c1.21 0 3.21-1.2 4.02-.4 0 0 .4.4.4 2.01v7.43c0 .8-1.59 1.77-1.81.4-.83-5.25-1.81-5.82-5.62-5.82-2.21 0-4.82-.81-4.82 1.81v29.32c0 2.81 3.08 3.04 4.22 3.61.4.2-.4 1.41-.4 1.41h-14.26s-.6-1.61.6-1.81c1.2-.2 3.82-2.41 3.82-4.22v-28.11s.4-2.01-2.01-2.01c-4.82 0-7.8-.97-8.84 5.22-.2 1.2-2.01 2.61-2.01 0 0-1.01.14-6.22 0-7.63-.19-2.02.81-2.21 3.42-1.21M100.02 204.01l1.81-.2v7.23c-2.41 0-2.61-2.01-2.41-3.41.2-1.4-5.43 1.05-9.64 5.02-3.61 3.41-4.82 7.22-4.82 7.22 0 .21 5.22.41 5.82-1.6.06-.2 1 .4 1 .4v7.03s-1.14 1.44-1.61 1.21c-.47-.24 1.41-4.62-3.61-4.42-2.41.09-2.61-.2-2.61 0s-2.22 9.24-8.03 15.66c-5.72 6.33-14.06 8.23-18.87 4.21v-2.01s3.2 1.5 6.02 1.41c3.43-.12 8.55-1.7 12.05-8.03 3.71-6.73 4.62-10.64 4.62-11.24 0-.4-1.31-.2-1.31-.2l-.7-2.21h3.11s1.2-5.02 6.53-9.44c3.62-3.01 7.43-5.62 12.65-6.63M138.98 203.6l-.4 14.46-1.81.6s-1.61-9.03-7.43-9.64c-5.82-.6-12.85-.8-16.46 3.42-3.61 4.21-6.22 11.04-6.22 18.47 0 10.85 2.01 21.69 16.87 21.69 8.84 0 8.63-6.83 8.63-5.62v-10.64c0-1.41-3.41-3.02-6.02-3.02l.6-2.21h18.07l-.2 1.81s-4.42 1-4.42 3.61v14.66s-8.87 3.27-11.25 4.82c-4.62 3.01-4.42 3.01-9.44 3.01-4.01 0-16.06-2.81-19.27-13.25-3.21-10.44-2.76-23.04 4.82-33.53 5.22-7.23 12.25-9.04 19.48-9.04 4.01 0 7.83 1.01 9.03 1.01 1.21 0 3.41-1.01 4.02-1.2.6-.21 1.4.59 1.4.59M144.6 204.01h13.25l-.2 2.01s-3.62.8-3.62 3.41v23.5c0 4.62 5.22 7.83 8.84 7.83 3.61 0 11.24-2.61 11.24-9.84v-21.68c0-1.41-1.61-3.42-5.42-3.42-1 0 1.61-2.01 1.61-2.01h10.84l-.4 2.01s-2.81 1-2.81 3.62c0 2.9-.2 18.14-.2 19.88 0 8.63-7.23 15.67-14.86 15.67-9.44 0-15.06-4.22-15.06-11.65v-25.1c0-1.41-3.82-2.41-3.82-2.41-1.6.19.61-1.82.61-1.82M217.49 204.2h14.06l-.6 1.61s-4.02-.6-4.02 5.02v27.1c0 1.2-1 1.61 2.41 2.61 1.54.45 8.97.27 11.04-.6 3.81-1.61 4.82-6.22 4.82-6.22l1.2-.2s-.4 8.64-1.01 9.84c-.6 1.21-1.84.84-4.82.6-5.02-.4-23.09.21-23.09.21l-.4-1.21s3.81-.2 3.81-8.44v-25.1c0-4.22-2.9-2.81-4.41-3.82-.6-.39 1.01-1.4 1.01-1.4M248.41 204.81s8.85.09 12.04-.4c5.22-.81 9.76-.47 13.45 1.81 2.61 1.6 3.82 5.22 4.02 7.43.42 4.6-2.67 7.74-5.02 9.44-3.61 2.61-6.82 3.01-14.45 2.21-1-.1-.81 1.61-.81 2.61v10.84c0 1.4 2.01 3.61 5.22 3.61.2 0-.81 1.61-.81 1.61H248.2s-.6-1 .4-1.4c1-.4 2.82-.8 3.01-3.21.2-2.41 0-27.31 0-29.52 0-1.21-1-3.21-3.81-3.21l.61-1.82m9.43 16.27s-.2 2.25 7.03 2c4.62-.16 6.82-5.22 6.82-8.43s-2.81-6.03-5.22-6.63c-2.41-.6-8.63 0-8.63 0v13.06zM315.46 244.22l.02-1.4c-.83-.01-3.59-.23-3.58-4.65.01-2.21.01-27.77.03-29.72.02-2.25 4.04-2.98 4.04-2.98l.21-1.21-13.65-.09-.22 1.61s3.73.34 3.73 2.75v11.75h-17.47c-1 0-.6-.6-.6-1.61v-9.84c0-2.41 2.81-2.61 2.81-2.61l.6-2.01h-12.65l-.4 1.61s3.82-.4 4.02 2.61c.14 2.2 0 28.11 0 29.72 0 1.41-1.18 4.42-3.62 4.62l-.2 1.4h12.45c.2 0 1.81-1.4-.4-2.01-1.66-.45-2.81-1.61-2.81-4.22v-14.05s.2-.6 1.2-.6h16.87v14.86c0 4.02-1.96 3.89-2.81 4.42-1.2.75-1.09 1.44 0 1.61.94.14 12.43.04 12.43.04M75.35 164.6c0-5.52-2.6-7.56-8.33-8.03-1.44-.12.81-1.71.81-1.71 7.71-.12 17.16 0 17.16 0 .81.2.7.4.1 1.51-.48.88-4.92-.9-4.92 7.93l-.02.15v27.71c0 6.02-4.22 10.24-4.22 10.24-2.61 3.41-7.63 6.83-16.06 6.83-20.08 0-19.48-15.26-19.48-15.26v-28.51c0-5.52-.19-8.26-5.92-8.74-1.44-.12.8-1.71.8-1.71 7.43.61 17.57 0 17.57 0 .8.2.7.4.1 1.51-.48.88-4.92-.71-4.92 8.13v25.1c0 8.83 5.62 14.05 13.65 14.05s13.65-4.42 13.65-11.64v-27.51l.03-.05M121.06 164.97c-.11-8.84 3.45-7.09 3.92-7.98.59-1.11.69-1.31-.12-1.5 0 0-4.01.6-11.45.09 0 0-2.22 1.61-.78 1.72 5.74.4 5.35 2.48 5.42 8l-.05 20.04c-.9.5-19.58-27.41-19.58-27.41l-1.79-2.61s-1.01.4-8.43-.2c0 0-2.24 1.59-.81 1.71 5.74.48 5.22 2.51 5.22 8.03l-.02 5.72.03 15.65c-.1 8.84-4.12 7-4.6 7.88-.61 1.1-.72 1.3.08 1.51 0 0 4.72-.5 12.15.19 0 0 2.26-1.56.82-1.7-5.73-.54-5.29-2.6-5.23-8.12l-.04-20.11s19.23 24.29 21.29 31.32c0 0 .5 1.76 1.61.5.82-.93 1.06-.72 1.65-1.1.7-.45.7-.75.75-1.61l-.04-30.02M195.8 174.29c1.01-.6 5.02-1 7.43-1.2 2.41-.2 4.02 2.81 4.22 4.42.2 1.61 1.76.41 1.61-.6-.4-2.61 0-6.22 0-8.23 0-1.4-1.2-1-1.61-.4-.8 1.2-1.81 2.01-4.01 2.41-2.21.4-7.63.8-7.63.8l-.2-.6v-12.05h11.04s4.79.27 6.02 4.22c1.01 3.21 2.21.81 1.81-1.4-.5-2.75-1.01-7.03-1.01-7.03l-2.91.3h-24.1c-1.81 0-2.01 1.81-2.01 1.81s5.22-.2 5.22 6.63l.02 25.6c0 4.02-4.22 3.62-4.22 4.42 0 .8.81 1.81 1.61 1.81h23.98s3.41 1.2 3.61-.4c.24-1.88 1.41-8.84 1.41-8.84s.04-2.07-1.81 0c-.81.9-1.21 5.62-9.23 5.82-7.03.18-9.24-.4-9.44-2.81-.2-2.41 0-14.46 0-14.46l.2-.22M357.03 195.78c1.91 0 1.31-.2 1.91-.9.6-.7 0-1.01-1.1-.9-1.1.1-2.91-.5-3.01-3.51-.1-3.01 0-11.55 0-11.55.6-1 6.02-10.44 8.23-14.65l1.2-2.07c1.17-2.03 1.53-3.92 3.71-4.22.6-.08.58-.26 1.61-.6.6-.2 1.2-1.61.4-1.61h-12.15c-.4 0-2.2.56-.7 1.31.4.2 1.86-.12 3.01.8.52.42 1.61 2.47.7 4.18l-8.03 13.05s-6.42-11.45-7.63-13.45c-1.2-2.01-.97-3.52 1.21-3.82.6-.08.58-.26 1.6-.6.61-.2 1.21-1.61.4-1.61h-13.96c-.4 0-2.2.55-.7 1.3.4.2 2.41.81 2.91 1.61.5.81 10.64 18.88 11.95 21.79.55 1.23.47 8.03.4 10.04-.1 2.91-.97 3.21-2.31 3.62-.96.29-1.4.7-1.51 1.31-.1.6.2.49 2.52.5 3.83-.01 9.34-.02 9.34-.02M369.28 150.6H33.16l1.61-1.61h336.12l-1.61 1.61M137.57 163.14c0-6.63 3.31-5.92 3.31-5.92.6-.1.4-.7.7-1.11.3-.4.3-.65-.6-.6-2.01.1-9.74 0-11.15 0l-.99-.05c-3.21 0-2.11 1.81-2.11 1.81s5.62-.6 5.62 6.83l.02 26c0 4.02-3.62 3.41-3.62 4.22 0 .8-.6 1.48.2 1.4 6.42-.6 12.25.2 12.44 0 .22-.21 1.37-1.49.4-1.61-2.85-.36-4.21-1.61-4.21-6.02l-.01-24.95M314.86 250.19H144.6l1.61-1.61h170.27l-1.62 1.61"/><path class="st0" d="M62.38 222.78c-1.61 2.01-3.21 4.62-3.62 7.03-1.38 8.27 3.77 8.64 6.83 8.03 4.02-.8 9.24-6.23 10.24-12.45 1.59-9.84-8.12-9.28-13.45-2.61m8.03 7.63c-2.01 2.61-3.21 4.42-6.42 4.01-3.21-.4-2.28-5.52.8-9.63 2.41-3.21 5.82-4.22 6.83-2.22 1.4 2.82.8 5.23-1.21 7.84z"/></g></svg>